<svg xmlns="http://www.w3.org/2000/svg" xmlns:xlink="http://www.w3.org/1999/xlink" width="2000" zoomAndPan="magnify" viewBox="0 0 1500 1499.999933" height="2000" preserveAspectRatio="xMidYMid meet" version="1.0">
<g fill="#222222" fill-opacity="1">
<g transform="translate(150.00002, 1099.863917)">
<g>
<path d="M 229.117188 3.757812 C 222.609375 3.757812 217.621094 2.023438 214.15625 -1.441406 C 210.6875 -4.910156 208.953125 -9.898438 208.953125 -16.40625 L 208.953125 -114.832031 L 212.710938 -114.832031 L 216.363281 -113.933594 C 210.796875 -91.292969 202.066406 -70.683594 190.179688 -52.109375 C 178.242188 -33.460938 164.320312 -18.613281 148.417969 -7.574219 C 132.28125 3.625 114.703125 9.226562 95.691406 9.226562 C 81.648438 9.226562 68.539062 6.375 56.367188 0.667969 C 44.074219 -5.09375 34.179688 -13.546875 26.683594 -24.695312 C 19.148438 -35.902344 15.378906 -49.726562 15.378906 -66.164062 C 15.378906 -86.113281 21.371094 -102.464844 33.351562 -115.21875 C 45.023438 -127.648438 60.503906 -137.792969 79.78125 -145.652344 C 98.699219 -153.367188 118.984375 -160.160156 140.640625 -166.03125 L 211.734375 -185.171875 L 212.710938 -181.542969 L 208.957031 -181.335938 C 207.554688 -206.960938 200.648438 -225.71875 188.238281 -237.613281 C 175.839844 -249.492188 158.480469 -255.433594 136.15625 -255.433594 C 120.351562 -255.433594 104.96875 -251.648438 90.007812 -244.082031 C 74.980469 -236.480469 60.710938 -224.496094 47.191406 -208.128906 L 44.707031 -205.125 L 34.1875 -214.476562 L 36.453125 -217.269531 C 52.429688 -236.960938 70.5625 -252.484375 90.851562 -263.839844 C 111.289062 -275.277344 133.679688 -280.996094 158.03125 -280.996094 C 192.316406 -280.996094 217.667969 -271.925781 234.089844 -253.785156 C 250.414062 -235.753906 258.578125 -210.761719 258.578125 -178.808594 L 258.578125 -69.445312 C 258.578125 -47.65625 260.046875 -32.78125 262.992188 -24.816406 C 265.660156 -17.597656 270.589844 -12.894531 277.785156 -10.707031 L 280.449219 -9.894531 L 280.449219 3.757812 Z M 229.117188 -3.757812 L 276.691406 -3.757812 L 276.691406 0 L 272.929688 0 L 272.929688 -7.109375 L 276.691406 -7.109375 L 275.59375 -3.511719 C 266.019531 -6.425781 259.46875 -12.660156 255.9375 -22.210938 C 252.683594 -31.015625 251.058594 -46.761719 251.058594 -69.445312 L 251.058594 -178.808594 C 251.058594 -208.828125 243.542969 -232.140625 228.515625 -248.738281 C 213.585938 -265.230469 190.09375 -273.476562 158.03125 -273.476562 C 134.988281 -273.476562 113.820312 -268.078125 94.523438 -257.277344 C 75.074219 -246.394531 57.664062 -231.476562 42.289062 -212.53125 L 39.371094 -214.898438 L 41.867188 -217.710938 L 46.789062 -213.335938 L 44.292969 -210.523438 L 41.394531 -212.917969 C 55.582031 -230.09375 70.652344 -242.714844 86.613281 -250.789062 C 102.640625 -258.898438 119.15625 -262.949219 136.15625 -262.949219 C 160.496094 -262.949219 179.589844 -256.3125 193.441406 -243.039062 C 207.277344 -229.777344 214.953125 -209.347656 216.464844 -181.75 L 216.632812 -178.707031 L 142.609375 -158.777344 C 121.25 -152.984375 101.253906 -146.289062 82.621094 -138.691406 C 64.355469 -131.242188 49.757812 -121.703125 38.828125 -110.070312 C 28.207031 -98.765625 22.898438 -84.128906 22.898438 -66.164062 C 22.898438 -51.253906 26.238281 -38.828125 32.921875 -28.890625 C 39.640625 -18.894531 48.523438 -11.3125 59.558594 -6.136719 C 70.71875 -0.90625 82.761719 1.707031 95.691406 1.707031 C 113.136719 1.707031 129.28125 -3.445312 144.128906 -13.75 C 159.210938 -24.21875 172.449219 -38.355469 183.84375 -56.160156 C 195.285156 -74.039062 203.691406 -93.894531 209.0625 -115.730469 L 216.472656 -114.832031 L 216.472656 -16.40625 C 216.472656 -11.972656 217.472656 -8.757812 219.472656 -6.757812 C 221.472656 -4.757812 224.6875 -3.757812 229.117188 -3.757812 Z M 63.910156 -81.476562 C 63.910156 -64.757812 68.851562 -52.128906 78.738281 -43.582031 C 88.789062 -34.894531 101.183594 -30.554688 115.925781 -30.554688 C 129.722656 -30.554688 142.226562 -34.433594 153.429688 -42.1875 C 164.863281 -50.105469 174.636719 -60.410156 182.75 -73.109375 C 190.953125 -85.949219 197.371094 -99.863281 202.011719 -114.851562 C 206.640625 -129.796875 208.953125 -144.191406 208.953125 -158.03125 L 208.953125 -174.433594 L 212.710938 -174.433594 L 213.691406 -170.804688 L 144.792969 -152.214844 C 131.511719 -148.625 118.5 -143.867188 105.753906 -137.941406 C 93.300781 -132.15625 83.148438 -124.722656 75.296875 -115.652344 C 67.703125 -106.878906 63.910156 -95.488281 63.910156 -81.476562 Z M 56.390625 -81.476562 C 56.390625 -97.355469 60.796875 -110.386719 69.609375 -120.574219 C 78.164062 -130.457031 89.15625 -138.519531 102.585938 -144.761719 C 115.71875 -150.867188 129.136719 -155.769531 142.832031 -159.472656 L 216.472656 -179.34375 L 216.472656 -158.03125 C 216.472656 -143.433594 214.046875 -128.300781 209.195312 -112.625 C 204.355469 -96.992188 197.652344 -82.472656 189.085938 -69.0625 C 180.429688 -55.515625 169.972656 -44.496094 157.710938 -36.007812 C 145.21875 -27.359375 131.289062 -23.035156 115.925781 -23.035156 C 99.316406 -23.035156 85.28125 -27.988281 73.824219 -37.894531 C 62.203125 -47.9375 56.390625 -62.464844 56.390625 -81.476562 Z M 56.390625 -81.476562 "/>
</g>
</g>
</g>
<g fill="#222222" fill-opacity="1">
<g transform="translate(381.302536, 1099.863917)">
<g>
<path d="M 123.582031 8.679688 C 101.328125 8.679688 81.183594 5.890625 63.140625 0.3125 C 45.136719 -5.257812 31.433594 -11.050781 22.035156 -17.066406 L 20.449219 -18.078125 L 15.148438 -89.363281 L 26.230469 -91.824219 L 27.488281 -89.035156 C 38.898438 -63.71875 53.835938 -43.871094 72.300781 -29.488281 C 90.597656 -15.238281 111.71875 -7.9375 135.667969 -7.585938 C 151.851562 -7.585938 165.15625 -11.941406 175.578125 -20.65625 C 185.796875 -29.199219 190.90625 -40.542969 190.90625 -54.683594 C 190.90625 -66.820312 187.507812 -76.535156 180.707031 -83.835938 C 173.601562 -91.457031 164.191406 -97.71875 152.480469 -102.613281 C 140.378906 -107.671875 127.28125 -112.367188 113.179688 -116.707031 C 95.886719 -122.226562 80.4375 -128.019531 66.820312 -134.089844 C 52.761719 -140.363281 41.710938 -148.664062 33.667969 -159.003906 C 25.484375 -169.523438 21.394531 -183.417969 21.394531 -200.683594 C 21.394531 -223.347656 30.492188 -242.4375 48.6875 -257.949219 C 66.707031 -273.3125 92.035156 -280.996094 124.675781 -280.996094 C 142.792969 -280.996094 159.539062 -279.421875 174.914062 -276.269531 C 190.300781 -273.121094 202.304688 -269.667969 210.929688 -265.921875 L 213.09375 -264.980469 L 215.5 -203.640625 L 203.9375 -201.328125 L 202.714844 -204.078125 C 194.246094 -223.136719 182.085938 -238.296875 166.242188 -249.566406 C 150.488281 -260.769531 133.351562 -266.367188 114.832031 -266.367188 C 97.078125 -266.367188 82.976562 -262.429688 72.53125 -254.550781 C 62.410156 -246.917969 57.347656 -236.800781 57.347656 -224.195312 C 57.347656 -213.878906 60.566406 -205.253906 67.007812 -198.320312 C 73.765625 -191.039062 82.835938 -184.859375 94.21875 -179.78125 C 105.953125 -174.546875 118.871094 -169.578125 132.972656 -164.878906 C 143.542969 -161.597656 154.230469 -158.035156 165.03125 -154.191406 C 176.050781 -150.269531 186.140625 -145.40625 195.308594 -139.609375 C 204.71875 -133.65625 212.398438 -125.976562 218.351562 -116.566406 C 224.386719 -107.023438 227.40625 -94.960938 227.40625 -80.382812 C 227.40625 -64.398438 223.503906 -49.648438 215.695312 -36.125 C 207.851562 -22.542969 196.128906 -11.753906 180.523438 -3.761719 C 165.058594 4.160156 146.097656 8.304688 123.644531 8.679688 Z M 123.519531 1.164062 C 144.808594 0.808594 162.667969 -3.066406 177.09375 -10.453125 C 191.382812 -17.773438 202.078125 -27.582031 209.183594 -39.882812 C 216.320312 -52.242188 219.890625 -65.742188 219.890625 -80.382812 C 219.890625 -93.507812 217.257812 -104.230469 211.996094 -112.546875 C 206.648438 -121.003906 199.746094 -127.90625 191.289062 -133.253906 C 182.59375 -138.753906 173 -143.371094 162.511719 -147.105469 C 151.804688 -150.917969 141.167969 -154.464844 130.59375 -157.746094 C 116.261719 -162.523438 103.113281 -167.578125 91.152344 -172.914062 C 78.839844 -178.410156 68.953125 -185.171875 61.496094 -193.203125 C 53.71875 -201.578125 49.828125 -211.910156 49.828125 -224.195312 C 49.828125 -239.296875 55.886719 -251.417969 68.003906 -260.550781 C 79.792969 -269.441406 95.402344 -273.886719 114.832031 -273.886719 C 134.953125 -273.886719 153.542969 -267.824219 170.597656 -255.695312 C 187.5625 -243.628906 200.558594 -227.441406 209.585938 -207.128906 L 206.148438 -205.601562 L 205.414062 -209.289062 L 210.882812 -210.382812 L 211.617188 -206.695312 L 207.863281 -206.550781 L 205.675781 -262.324219 L 209.429688 -262.472656 L 207.933594 -259.023438 C 199.789062 -262.566406 188.277344 -265.859375 173.40625 -268.90625 C 158.527344 -271.953125 142.28125 -273.476562 124.675781 -273.476562 C 93.882812 -273.476562 70.179688 -266.394531 53.566406 -252.230469 C 37.132812 -238.214844 28.914062 -221.035156 28.914062 -200.683594 C 28.914062 -185.136719 32.476562 -172.78125 39.605469 -163.621094 C 46.875 -154.269531 56.96875 -146.71875 69.882812 -140.957031 C 83.246094 -135 98.414062 -129.3125 115.390625 -123.894531 C 129.722656 -119.484375 143.054688 -114.703125 155.378906 -109.550781 C 168.089844 -104.238281 178.367188 -97.375 186.207031 -88.960938 C 194.355469 -80.21875 198.425781 -68.792969 198.425781 -54.683594 C 198.425781 -38.199219 192.417969 -24.933594 180.402344 -14.886719 C 168.582031 -5.007812 153.636719 -0.0703125 135.554688 -0.0703125 C 109.925781 -0.445312 87.300781 -8.273438 67.683594 -23.554688 C 48.238281 -38.699219 32.554688 -59.496094 20.632812 -85.945312 L 24.058594 -87.492188 L 24.875 -83.820312 L 19.953125 -82.726562 L 19.136719 -86.398438 L 22.886719 -86.675781 L 27.808594 -20.511719 L 24.058594 -20.230469 L 26.085938 -23.398438 C 34.914062 -17.75 48.007812 -12.242188 65.363281 -6.871094 C 82.679688 -1.515625 102.085938 1.160156 123.582031 1.160156 Z M 123.519531 1.164062 "/>
</g>
</g>
</g>
<g fill="#222222" fill-opacity="1">
<g transform="translate(566.125702, 1099.863917)">
<g>
<path d="M 165.6875 8.679688 C 150.332031 8.679688 135.628906 6.339844 121.570312 1.652344 C 107.59375 -3.007812 95.179688 -8.890625 84.335938 -15.992188 L 86.398438 -19.136719 L 90.15625 -19.136719 L 90.15625 78.195312 C 90.15625 99.984375 91.628906 114.859375 94.570312 122.824219 C 97.238281 130.042969 102.167969 134.746094 109.363281 136.9375 L 112.027344 137.746094 L 112.027344 151.398438 L 18.113281 151.398438 L 18.113281 137.746094 L 20.777344 136.9375 C 27.972656 134.746094 32.902344 130.042969 35.570312 122.824219 C 38.515625 114.859375 39.984375 99.984375 39.984375 78.195312 L 39.984375 -195.214844 C 39.984375 -207.65625 39.207031 -216.914062 37.644531 -222.984375 C 36.183594 -228.660156 34.167969 -232.710938 31.597656 -235.128906 C 28.824219 -237.742188 25.085938 -240.054688 20.390625 -242.066406 L 18.113281 -243.042969 L 18.113281 -253.988281 L 82.011719 -282.128906 L 90.15625 -275.792969 L 90.15625 -234.039062 L 86.398438 -234.039062 L 84.175781 -237.070312 C 99.304688 -248.140625 116.175781 -258.191406 134.789062 -267.222656 C 153.71875 -276.40625 174.042969 -280.996094 195.761719 -280.996094 C 217.648438 -280.996094 237.289062 -275.324219 254.683594 -263.980469 C 272.039062 -252.664062 285.695312 -236.664062 295.660156 -215.984375 C 305.570312 -195.417969 310.523438 -171.363281 310.523438 -143.8125 C 310.523438 -117.71875 304.929688 -93.113281 293.746094 -69.996094 C 282.511719 -46.78125 266.132812 -27.96875 244.605469 -13.554688 C 223.023438 0.894531 196.734375 8.308594 165.730469 8.679688 Z M 165.640625 1.164062 C 195.152344 0.808594 220.078125 -6.179688 240.421875 -19.800781 C 260.816406 -33.457031 276.335938 -51.28125 286.976562 -73.269531 C 297.664062 -95.355469 303.003906 -118.871094 303.003906 -143.8125 C 303.003906 -170.21875 298.300781 -193.1875 288.886719 -212.71875 C 279.53125 -232.140625 266.757812 -247.128906 250.574219 -257.683594 C 234.429688 -268.210938 216.160156 -273.476562 195.761719 -273.476562 C 175.191406 -273.476562 155.964844 -269.136719 138.070312 -260.457031 C 119.867188 -251.625 103.382812 -241.808594 88.617188 -231.003906 L 82.636719 -226.628906 L 82.636719 -273.957031 L 86.398438 -273.957031 L 84.089844 -270.988281 L 79.167969 -274.816406 L 81.476562 -277.785156 L 82.992188 -274.34375 L 23.386719 -248.09375 L 21.871094 -251.535156 L 25.632812 -251.535156 L 25.632812 -245.519531 L 21.871094 -245.519531 L 23.355469 -248.976562 C 28.863281 -246.613281 33.332031 -243.824219 36.753906 -240.601562 C 40.378906 -237.1875 43.105469 -231.941406 44.925781 -224.859375 C 46.644531 -218.171875 47.503906 -208.289062 47.503906 -195.214844 L 47.503906 78.195312 C 47.503906 100.878906 45.878906 116.625 42.625 125.429688 C 39.09375 134.980469 32.542969 141.214844 22.96875 144.128906 L 21.871094 140.53125 L 25.632812 140.53125 L 25.632812 147.640625 L 21.871094 147.640625 L 21.871094 143.882812 L 108.269531 143.882812 L 108.269531 147.640625 L 104.511719 147.640625 L 104.511719 140.53125 L 108.269531 140.53125 L 107.175781 144.128906 C 97.601562 141.214844 91.046875 134.980469 87.519531 125.429688 C 84.265625 116.625 82.636719 100.878906 82.636719 78.195312 L 82.636719 -26.097656 L 88.457031 -22.285156 C 98.757812 -15.535156 110.585938 -9.933594 123.949219 -5.480469 C 137.234375 -1.050781 151.144531 1.160156 165.6875 1.160156 Z M 90.15625 -90.226562 C 90.15625 -81.75 92.738281 -72.78125 97.898438 -63.316406 C 103.167969 -53.65625 110.207031 -44.773438 119.015625 -36.667969 C 127.839844 -28.550781 137.816406 -21.933594 148.9375 -16.8125 C 159.921875 -11.753906 171.339844 -9.226562 183.183594 -9.226562 C 210.671875 -9.226562 230.878906 -18.53125 243.800781 -37.140625 C 257.023438 -56.179688 263.632812 -81.167969 263.632812 -112.097656 C 263.632812 -127.167969 262.015625 -143.0625 258.78125 -159.777344 C 255.570312 -176.367188 250.132812 -191.972656 242.464844 -206.589844 C 234.898438 -221.019531 224.972656 -232.710938 212.683594 -241.664062 C 200.585938 -250.476562 185.285156 -254.886719 166.78125 -254.886719 C 151.710938 -254.886719 137.882812 -251.652344 125.300781 -245.183594 C 112.363281 -238.539062 100.148438 -230.902344 88.652344 -222.28125 L 86.398438 -225.289062 L 90.15625 -225.289062 Z M 82.636719 -90.226562 L 82.636719 -227.167969 L 84.140625 -228.296875 C 95.976562 -237.171875 108.550781 -245.03125 121.863281 -251.871094 C 135.523438 -258.894531 150.496094 -262.402344 166.78125 -262.402344 C 186.917969 -262.402344 203.695312 -257.515625 217.113281 -247.738281 C 230.34375 -238.097656 241.015625 -225.546875 249.125 -210.082031 C 257.132812 -194.8125 262.8125 -178.519531 266.164062 -161.207031 C 269.488281 -144.019531 271.152344 -127.648438 271.152344 -112.097656 C 271.152344 -79.597656 264.09375 -53.183594 249.976562 -32.851562 C 235.558594 -12.089844 213.292969 -1.707031 183.183594 -1.707031 C 170.238281 -1.707031 157.777344 -4.464844 145.796875 -9.980469 C 133.953125 -15.433594 123.332031 -22.484375 113.925781 -31.136719 C 104.507812 -39.800781 96.964844 -49.328125 91.300781 -59.714844 C 85.523438 -70.304688 82.636719 -80.472656 82.636719 -90.226562 Z M 82.636719 -90.226562 "/>
</g>
</g>
</g>
<g fill="#222222" fill-opacity="1">
<g transform="translate(837.892649, 1099.863917)">
<g>
<path d="M 149.28125 9.226562 C 133.902344 9.226562 118.351562 6.421875 102.632812 0.804688 C 86.875 -4.820312 72.4375 -13.351562 59.320312 -24.78125 C 46.152344 -36.253906 35.628906 -50.621094 27.75 -67.882812 C 19.867188 -85.148438 15.925781 -105.355469 15.925781 -128.503906 C 15.925781 -159.085938 22.757812 -185.796875 36.417969 -208.628906 C 50.0625 -231.433594 68.109375 -249.195312 90.558594 -261.914062 C 113.007812 -274.636719 137.320312 -280.996094 163.5 -280.996094 C 187.109375 -280.996094 207.308594 -276.375 224.09375 -267.132812 C 240.898438 -257.882812 253.9375 -245.679688 263.21875 -230.535156 C 272.503906 -215.371094 277.335938 -198.703125 277.714844 -180.527344 L 277.792969 -176.691406 L 60.148438 -176.691406 L 60.148438 -180.449219 L 63.875 -179.941406 C 62.804688 -172.089844 62.269531 -163.875 62.269531 -155.296875 C 62.269531 -131.105469 66.964844 -109.703125 76.355469 -91.097656 C 85.6875 -72.609375 98.882812 -58.265625 115.941406 -48.066406 C 133.027344 -37.847656 153.070312 -32.742188 176.074219 -32.742188 C 196.566406 -32.742188 214.367188 -36.957031 229.472656 -45.386719 C 244.765625 -53.925781 258.46875 -65.136719 270.574219 -79.023438 L 273.21875 -82.058594 L 283.242188 -72.039062 L 281.390625 -69.449219 C 272.128906 -56.480469 261.023438 -43.988281 248.078125 -31.96875 C 235.035156 -19.855469 220.40625 -9.980469 204.199219 -2.339844 C 187.832031 5.371094 169.527344 9.226562 149.28125 9.226562 Z M 149.28125 1.707031 C 168.40625 1.707031 185.644531 -1.910156 200.992188 -9.140625 C 216.5 -16.449219 230.488281 -25.894531 242.964844 -37.476562 C 255.535156 -49.152344 266.304688 -61.265625 275.269531 -73.816406 L 278.332031 -71.632812 L 275.671875 -68.976562 L 270.75 -73.894531 L 273.410156 -76.554688 L 276.242188 -74.085938 C 263.5625 -59.539062 249.191406 -47.785156 233.136719 -38.820312 C 216.890625 -29.753906 197.871094 -25.222656 176.074219 -25.222656 C 151.6875 -25.222656 130.355469 -30.683594 112.082031 -41.613281 C 93.777344 -52.558594 79.632812 -67.921875 69.644531 -87.710938 C 59.714844 -107.382812 54.75 -129.910156 54.75 -155.296875 C 54.75 -164.214844 55.308594 -172.769531 56.425781 -180.957031 L 56.867188 -184.210938 L 273.957031 -184.210938 L 273.957031 -180.449219 L 270.195312 -180.371094 C 269.847656 -197.191406 265.382812 -212.601562 256.804688 -226.605469 C 248.222656 -240.621094 236.109375 -251.933594 220.46875 -260.546875 C 204.808594 -269.167969 185.820312 -273.476562 163.5 -273.476562 C 138.640625 -273.476562 115.5625 -267.441406 94.265625 -255.375 C 72.96875 -243.304688 55.835938 -226.4375 42.871094 -204.765625 C 29.921875 -183.125 23.445312 -157.703125 23.445312 -128.503906 C 23.445312 -106.445312 27.160156 -87.28125 34.589844 -71.007812 C 42.019531 -54.730469 51.910156 -41.210938 64.261719 -30.449219 C 76.660156 -19.640625 90.296875 -11.582031 105.160156 -6.273438 C 120.0625 -0.953125 134.769531 1.707031 149.28125 1.707031 Z M 61.789062 -191.316406 L 230.210938 -191.316406 L 230.210938 -187.558594 L 226.492188 -187.011719 C 224.738281 -198.925781 220.429688 -210.78125 213.5625 -222.578125 C 206.734375 -234.308594 197.628906 -244.113281 186.238281 -252 C 175.035156 -259.757812 161.441406 -263.632812 145.453125 -263.632812 C 123.210938 -263.980469 105.449219 -256.914062 92.175781 -242.433594 C 78.621094 -227.648438 69.726562 -209.121094 65.484375 -186.855469 L 61.789062 -187.558594 Z M 61.789062 -183.800781 L 57.246094 -183.800781 L 58.097656 -188.261719 C 62.605469 -211.929688 72.117188 -231.679688 86.632812 -247.515625 C 101.429688 -263.65625 121.035156 -271.535156 145.453125 -271.152344 C 163.003906 -271.152344 178.027344 -266.828125 190.519531 -258.179688 C 202.824219 -249.660156 212.671875 -239.054688 220.0625 -226.359375 C 227.414062 -213.730469 232.035156 -200.976562 233.929688 -188.105469 L 234.5625 -183.800781 Z M 61.789062 -183.800781 "/>
</g>
</g>
</g>
<g fill="#f6f4f0" fill-opacity="1">
<g transform="translate(150.00002, 1099.863917)">
<g>
<path d="M 229.109375 0 C 218.171875 0 212.703125 -5.46875 212.703125 -16.40625 L 212.703125 -114.828125 C 207.242188 -92.585938 198.679688 -72.351562 187.015625 -54.125 C 175.347656 -35.90625 161.765625 -21.414062 146.265625 -10.65625 C 130.773438 0.09375 113.914062 5.46875 95.6875 5.46875 C 82.195312 5.46875 69.617188 2.734375 57.953125 -2.734375 C 46.296875 -8.203125 36.910156 -16.222656 29.796875 -26.796875 C 22.691406 -37.367188 19.140625 -50.492188 19.140625 -66.171875 C 19.140625 -85.117188 24.789062 -100.609375 36.09375 -112.640625 C 47.394531 -124.671875 62.429688 -134.515625 81.203125 -142.171875 C 99.972656 -149.828125 120.113281 -156.570312 141.625 -162.40625 L 212.703125 -181.546875 C 211.242188 -208.148438 203.953125 -227.738281 190.828125 -240.3125 C 177.710938 -252.894531 159.488281 -259.1875 136.15625 -259.1875 C 119.75 -259.1875 103.800781 -255.265625 88.3125 -247.421875 C 72.820312 -239.585938 58.148438 -227.285156 44.296875 -210.515625 L 39.375 -214.890625 C 55.050781 -234.210938 72.820312 -249.429688 92.6875 -260.546875 C 112.550781 -271.671875 134.332031 -277.234375 158.03125 -277.234375 C 191.195312 -277.234375 215.617188 -268.570312 231.296875 -251.25 C 246.972656 -233.9375 254.8125 -209.789062 254.8125 -178.8125 L 254.8125 -69.4375 C 254.8125 -47.207031 256.359375 -31.898438 259.453125 -23.515625 C 262.554688 -15.128906 268.300781 -9.660156 276.6875 -7.109375 L 276.6875 0 Z M 60.15625 -81.46875 C 60.15625 -63.613281 65.53125 -50.035156 76.28125 -40.734375 C 87.03125 -31.441406 100.242188 -26.796875 115.921875 -26.796875 C 130.503906 -26.796875 143.71875 -30.894531 155.5625 -39.09375 C 167.414062 -47.300781 177.535156 -57.960938 185.921875 -71.078125 C 194.304688 -84.203125 200.863281 -98.421875 205.59375 -113.734375 C 210.332031 -129.046875 212.703125 -143.8125 212.703125 -158.03125 L 212.703125 -174.4375 L 143.8125 -155.84375 C 130.320312 -152.195312 117.101562 -147.363281 104.15625 -141.34375 C 91.21875 -135.332031 80.648438 -127.585938 72.453125 -118.109375 C 64.253906 -108.628906 60.15625 -96.414062 60.15625 -81.46875 Z M 60.15625 -81.46875 "/>
</g>
</g>
</g>
<g fill="#f6f4f0" fill-opacity="1">
<g transform="translate(381.302536, 1099.863917)">
<g>
<path d="M 123.578125 4.921875 C 101.703125 4.921875 81.925781 2.1875 64.25 -3.28125 C 46.570312 -8.75 33.175781 -14.398438 24.0625 -20.234375 L 19.140625 -86.390625 L 24.0625 -87.484375 C 35.726562 -61.609375 51.035156 -41.285156 69.984375 -26.515625 C 88.941406 -11.753906 110.816406 -4.191406 135.609375 -3.828125 C 152.742188 -3.828125 166.867188 -8.472656 177.984375 -17.765625 C 189.109375 -27.066406 194.671875 -39.375 194.671875 -54.6875 C 194.671875 -67.800781 190.929688 -78.367188 183.453125 -86.390625 C 175.984375 -94.410156 166.140625 -100.972656 153.921875 -106.078125 C 141.710938 -111.179688 128.5 -115.921875 114.28125 -120.296875 C 97.144531 -125.765625 81.832031 -131.503906 68.34375 -137.515625 C 54.863281 -143.535156 44.296875 -151.46875 36.640625 -161.3125 C 28.984375 -171.15625 25.15625 -184.28125 25.15625 -200.6875 C 25.15625 -222.1875 33.8125 -240.316406 51.125 -255.078125 C 68.4375 -269.847656 92.953125 -277.234375 124.671875 -277.234375 C 142.535156 -277.234375 159.03125 -275.679688 174.15625 -272.578125 C 189.289062 -269.484375 201.046875 -266.113281 209.421875 -262.46875 L 211.609375 -206.6875 L 206.140625 -205.59375 C 197.398438 -225.28125 184.828125 -240.957031 168.421875 -252.625 C 152.015625 -264.289062 134.148438 -270.125 114.828125 -270.125 C 96.234375 -270.125 81.378906 -265.929688 70.265625 -257.546875 C 59.148438 -249.160156 53.59375 -238.039062 53.59375 -224.1875 C 53.59375 -212.882812 57.144531 -203.40625 64.25 -195.75 C 71.351562 -188.101562 80.828125 -181.632812 92.671875 -176.34375 C 104.523438 -171.0625 117.5625 -166.050781 131.78125 -161.3125 C 142.351562 -158.03125 153.015625 -154.472656 163.765625 -150.640625 C 174.523438 -146.816406 184.367188 -142.078125 193.296875 -136.421875 C 202.222656 -130.773438 209.507812 -123.484375 215.15625 -114.546875 C 220.8125 -105.617188 223.640625 -94.226562 223.640625 -80.375 C 223.640625 -65.070312 219.90625 -50.945312 212.4375 -38 C 204.96875 -25.0625 193.757812 -14.765625 178.8125 -7.109375 C 163.863281 0.546875 145.453125 4.554688 123.578125 4.921875 Z M 123.578125 4.921875 "/>
</g>
</g>
</g>
<g fill="#f6f4f0" fill-opacity="1">
<g transform="translate(566.125702, 1099.863917)">
<g>
<path d="M 165.6875 4.921875 C 150.738281 4.921875 136.425781 2.644531 122.75 -1.90625 C 109.082031 -6.46875 96.960938 -12.210938 86.390625 -19.140625 L 86.390625 78.1875 C 86.390625 100.425781 87.9375 115.738281 91.03125 124.125 C 94.132812 132.507812 99.878906 137.976562 108.265625 140.53125 L 108.265625 147.640625 L 21.875 147.640625 L 21.875 140.53125 C 30.257812 137.976562 36 132.507812 39.09375 124.125 C 42.195312 115.738281 43.75 100.425781 43.75 78.1875 L 43.75 -195.21875 C 43.75 -207.96875 42.925781 -217.53125 41.28125 -223.90625 C 39.644531 -230.289062 37.273438 -234.941406 34.171875 -237.859375 C 31.078125 -240.773438 26.976562 -243.328125 21.875 -245.515625 L 21.875 -251.53125 L 81.46875 -277.78125 L 86.390625 -273.953125 L 86.390625 -234.03125 C 101.335938 -244.96875 118.015625 -254.898438 136.421875 -263.828125 C 154.835938 -272.765625 174.617188 -277.234375 195.765625 -277.234375 C 216.898438 -277.234375 235.851562 -271.765625 252.625 -260.828125 C 269.394531 -249.890625 282.609375 -234.394531 292.265625 -214.34375 C 301.929688 -194.300781 306.765625 -170.789062 306.765625 -143.8125 C 306.765625 -118.289062 301.296875 -94.226562 290.359375 -71.625 C 279.421875 -49.03125 263.46875 -30.710938 242.5 -16.671875 C 221.539062 -2.640625 195.9375 4.554688 165.6875 4.921875 Z M 86.390625 -90.21875 C 86.390625 -81.101562 89.125 -71.535156 94.59375 -61.515625 C 100.0625 -51.492188 107.351562 -42.289062 116.46875 -33.90625 C 125.582031 -25.519531 135.878906 -18.679688 147.359375 -13.390625 C 158.847656 -8.109375 170.789062 -5.46875 183.1875 -5.46875 C 211.976562 -5.46875 233.207031 -15.3125 246.875 -35 C 260.550781 -54.6875 267.390625 -80.382812 267.390625 -112.09375 C 267.390625 -127.40625 265.75 -143.535156 262.46875 -160.484375 C 259.1875 -177.441406 253.625 -193.390625 245.78125 -208.328125 C 237.945312 -223.273438 227.648438 -235.394531 214.890625 -244.6875 C 202.140625 -253.988281 186.101562 -258.640625 166.78125 -258.640625 C 151.101562 -258.640625 136.703125 -255.265625 123.578125 -248.515625 C 110.453125 -241.773438 98.054688 -234.03125 86.390625 -225.28125 Z M 86.390625 -90.21875 "/>
</g>
</g>
</g>
<g fill="#f6f4f0" fill-opacity="1">
<g transform="translate(837.892649, 1099.863917)">
<g>
<path d="M 149.28125 5.46875 C 134.332031 5.46875 119.203125 2.734375 103.890625 -2.734375 C 88.578125 -8.203125 74.539062 -16.492188 61.78125 -27.609375 C 49.03125 -38.734375 38.828125 -52.675781 31.171875 -69.4375 C 23.515625 -86.207031 19.6875 -105.894531 19.6875 -128.5 C 19.6875 -158.394531 26.335938 -184.457031 39.640625 -206.6875 C 52.953125 -228.925781 70.539062 -246.242188 92.40625 -258.640625 C 114.28125 -271.035156 137.976562 -277.234375 163.5 -277.234375 C 186.46875 -277.234375 206.0625 -272.765625 222.28125 -263.828125 C 238.5 -254.898438 251.070312 -243.144531 260 -228.5625 C 268.9375 -213.976562 273.585938 -197.941406 273.953125 -180.453125 L 60.15625 -180.453125 C 59.0625 -172.429688 58.515625 -164.046875 58.515625 -155.296875 C 58.515625 -130.503906 63.34375 -108.539062 73 -89.40625 C 82.65625 -70.269531 96.320312 -55.414062 114 -44.84375 C 131.6875 -34.269531 152.378906 -28.984375 176.078125 -28.984375 C 197.210938 -28.984375 215.617188 -33.359375 231.296875 -42.109375 C 246.972656 -50.859375 261.007812 -62.335938 273.40625 -76.546875 L 278.328125 -71.625 C 269.210938 -58.875 258.273438 -46.570312 245.515625 -34.71875 C 232.753906 -22.875 218.445312 -13.210938 202.59375 -5.734375 C 186.738281 1.734375 168.96875 5.46875 149.28125 5.46875 Z M 61.796875 -187.5625 L 230.203125 -187.5625 C 228.378906 -199.945312 223.910156 -212.242188 216.796875 -224.453125 C 209.691406 -236.671875 200.21875 -246.878906 188.375 -255.078125 C 176.53125 -263.285156 162.222656 -267.390625 145.453125 -267.390625 C 122.117188 -267.753906 103.4375 -260.28125 89.40625 -244.96875 C 75.375 -229.65625 66.171875 -210.519531 61.796875 -187.5625 Z M 61.796875 -187.5625 "/>
</g>
</g>
</g>
</svg>
